<?xml version="1.0" encoding="utf-8"?>
<svg version="1.1" id="layer" xmlns="http://www.w3.org/2000/svg" xmlns:xlink="http://www.w3.org/1999/xlink" x="0px" y="0px"
	 viewBox="-153 -46 652 652" style="enable-background:new -153 -46 652 652;" xml:space="preserve">
<style type="text/css">
	.st0{fill:#212529;}
	.st1{fill:#FF6C37;}
</style>
<path class="st0" d="M103,245.7H88.2c-0.7-0.1-1.4,0.2-1.9,0.7c-0.5,0.4-0.8,1-0.8,1.6v52.5c0,0.7,0.4,1.4,1.1,1.7
	c1.4,0.9,3.2,0.9,4.6,0c0.7-0.3,1.1-1,1.1-1.7v-20.3h10.2c4.4,0.2,8.8-1.3,12.2-4.1c3.3-3.4,5-8.1,4.6-12.9v-0.7
	c0.4-4.6-1.1-9.3-4.3-12.7C111.7,246.8,107.4,245.4,103,245.7z M113.2,263.7c0.2,3-0.8,6-2.7,8.3c-2.1,2.1-5,3.1-7.9,3H92.4v-23.4
	h10.2c2.8-0.2,5.6,0.9,7.7,2.8c2,2.3,3,5.3,2.7,8.3L113.2,263.7z M147.2,249.5c-3.3,3.4-5,8.2-4.6,13v23.6c-0.4,4.8,1.3,9.5,4.6,13
	c7.3,5.5,17.3,5.5,24.6,0c3.4-3.4,5.1-8.2,4.6-13v-23.4c0.5-4.9-1.2-9.7-4.6-13.2C164.5,244,154.4,244,147.2,249.5z M169.8,286.1
	c0.3,3.1-0.7,6.1-2.7,8.4c-2,2-4.8,3-7.6,2.8c-6.9,0-10.2-3.8-10.2-11.2v-23.4c0-7.4,3.4-11.2,10.2-11.2c2.8-0.2,5.6,0.8,7.6,2.8
	c2,2.3,3,5.3,2.7,8.3V286.1z M224.5,272.1c-2.6-1.1-5.1-2.2-7.6-3.1c-2.4-0.8-4.6-2-6.5-3.6c-1.7-1.4-2.7-3.7-2.5-5.9
	c-0.2-2.5,0.9-4.8,3-6.2c2.3-1.4,5-2,7.6-1.9c2.5-0.1,5,0.4,7.3,1.5c1.1,0.5,2.3,1,3.5,1.4c0.9,0,1.6-0.5,2-1.3
	c0.4-0.7,0.8-1.5,0.8-2.4c0-1.6-1.5-2.9-4.5-3.9c-3-0.9-6.1-1.4-9.3-1.4c-2,0-4,0.2-6,0.7c-1.9,0.5-3.8,1.2-5.5,2.2
	c-1.8,1.1-3.2,2.7-4.2,4.6c-1.1,2.2-1.6,4.7-1.6,7.2c-0.1,3.1,0.8,6.1,2.6,8.6c1.7,2.2,3.9,3.9,6.5,5.1c2.6,1.1,5.1,2.1,7.6,3
	c2.4,0.9,4.6,2.3,6.5,4.1c1.8,1.9,2.7,4.4,2.6,7c0.2,2.7-0.9,5.4-2.9,7.3c-2.3,1.8-5.1,2.6-8,2.5c-2,0.1-3.9-0.3-5.7-1
	c-1.4-0.4-2.6-1.2-3.7-2.2l-2.5-2.4c-0.5-0.5-1.1-0.9-1.8-1c-0.8,0.1-1.5,0.5-1.9,1.1c-0.5,0.7-0.9,1.5-0.9,2.5
	c0,1.9,1.6,3.8,5.1,5.7c3.6,2.1,7.7,3.1,11.8,3c4.5,0.2,9-1.3,12.5-4.1c3.3-3.2,5-7.7,4.7-12.2C233.9,280.8,230.3,274.8,224.5,272.1
	L224.5,272.1z M287.4,245.7h-31.9c-0.7,0-1.3,0.3-1.7,0.9c-0.9,1.3-0.9,3,0,4.2c0.4,0.5,1,0.9,1.7,0.9h12.7v48.8
	c0,0.7,0.4,1.4,1,1.7c1.4,0.9,3.2,0.9,4.6,0c0.7-0.3,1-1,1-1.7v-48.8h12.5c0.7,0.1,1.4-0.3,1.7-0.9c0.4-0.6,0.7-1.4,0.6-2.1
	c0-0.7-0.2-1.4-0.6-2C288.7,246,288.1,245.7,287.4,245.7z M350.7,245.7c-2,0-3.7,1.4-5.1,4.2l-12.4,23.6l-12.3-23.6
	c-1.4-2.8-3.2-4.2-5.1-4.2h-1.4c-1.5,0.3-2.6,1.7-2.4,3.3v51.4c0,0.8,0.4,1.5,1.1,1.8c0.7,0.4,1.5,0.7,2.4,0.6
	c0.8,0,1.5-0.3,2.2-0.7c0.7-0.3,1-1,1-1.7V259l11.9,22.6c0.3,1.1,1.3,1.9,2.4,1.9c1.2-0.1,2.2-0.8,2.6-1.9l11.9-22.2v40.9
	c0,0.7,0.4,1.4,1,1.7c1.4,0.8,3.2,0.8,4.6,0c0.7-0.3,1-1,1-1.7v-51.5c0.1-0.3,0.1-0.5,0-0.8l0,0
	C353.7,246.5,352.2,245.4,350.7,245.7z M396.7,245.7c-2.2,0-3.6,0.8-4,2.2l-16.1,51.7c-0.1,0.2-0.1,0.4,0,0.6c0,0.9,0.5,1.7,1.3,2.1
	c0.8,0.5,1.7,0.8,2.7,0.8c1,0.2,2.1-0.5,2.4-1.5l3.4-11.4h20.3l3.4,11.4c0.3,1,1.4,1.6,2.4,1.5c1,0.1,2-0.2,2.8-0.8
	c0.8-0.3,1.3-1,1.3-1.9 M416.6,300.2v-0.3L400.6,248c-0.4-1.5-1.7-2.2-3.9-2.2L416.6,300.2z M387.9,284.5l8.7-29.3l8.8,29.3H387.9
	L387.9,284.5z M472.9,246.2c-1.4-0.8-3.2-0.8-4.6,0c-0.6,0.3-1,1-1,1.7v40.2l-19.5-38.2c-0.5-1.2-1.3-2.3-2.2-3.2
	c-0.8-0.7-1.7-1-2.8-1c-2.2,0-3.3,0.8-3.3,2.3v52.5c-0.1,0.7,0.3,1.4,1,1.7c1.4,0.9,3.2,0.9,4.6,0c0.6-0.3,1-1,1-1.7v-39.8
	l20.3,39.4c0.7,1.7,2.3,2.9,4.1,3c0.8,0,1.6-0.2,2.4-0.7c0.6-0.4,1-1,1-1.7v-52.7C473.9,247.2,473.5,246.6,472.9,246.2z"/>
<path class="st1" d="M17,229.3c-0.5,0.2-0.8,0.8-0.5,1.3c0,0.1,0.1,0.1,0.1,0.1c0.5,1.1,0.4,2.5-0.4,3.4c-0.4,0.4-0.4,1-0.1,1.4
	c0,0,0,0,0.1,0.1c0.2,0.1,0.5,0.1,0.7,0c0.3,0,0.6-0.2,0.8-0.4c1.4-1.6,1.6-3.8,0.7-5.7C17.9,229.1,17.4,229,17,229.3z"/>
<path class="st1" d="M-23.6,184.3c-49.9-6.5-95.4,28.8-101.8,78.7s28.8,95.5,78.7,101.9S48.7,336,55.2,286.2
	C61.6,236.3,26.4,190.7-23.6,184.3C-23.5,184.3-23.5,184.3-23.6,184.3z M-4.8,241c-1.7,0.1-3.3,0.7-4.5,1.9l-33.8,33.8l-7.2-7.2
	C-17,236.3-11,236-4.8,241z M-41.7,277.9L-8,244.5c1.9-1.8,4.8-1.8,6.7,0c0.9,0.9,1.4,2.2,1.4,3.4c-0.1,1.3-0.6,2.5-1.6,3.4
	l-35.6,31.4L-41.7,277.9z M-39.2,283l-8.4,2.1c-0.2,0.1-0.3,0.1-0.5,0c-0.1-0.2-0.1-0.4,0-0.5l5.1-5.1L-39.2,283z M-60.5,279.5
	l8.9-8.9l6.7,6.9l-15.3,3.3c-0.3,0.1-0.7-0.2-0.7-0.5c-0.1-0.2,0-0.4,0.2-0.5L-60.5,279.5z M-88.1,325.8c-0.2-0.1-0.4-0.2-0.5-0.4
	c-0.1-0.2-0.1-0.4,0-0.6l7.2-7.2l9.3,9.2L-88.1,325.8z M-69.7,316.2L-69.7,316.2c-0.7,0.4-1.1,1.1-0.9,1.9l1.5,6.6
	c0.1,0.4-0.1,0.9-0.4,1.1c-0.3,0.3-0.8,0.3-1.1,0l-9.3-9.6l28.5-28.6l13.8-3l6.6,6.6c-11.8,9.8-24.8,18.2-38.7,24.8L-69.7,316.2
	L-69.7,316.2z M-29.6,290.2l-6.3-6.3l35.6-31.3c0.3-0.3,0.7-0.6,0.9-1C-0.6,261.7-14.9,276.2-29.6,290.2z M-1.9,241.2
	c-5.3-5.5-5.1-14.3,0.4-19.6c5-4.8,12.8-5.1,18.2-0.8L4.5,233c-0.3,0.4-0.3,0.9,0,1.3l9.5,9.5c-5.4,2.6-11.8,1.5-16-2.7L-1.9,241.2z
	 M17.7,241.2c-0.7,0.6-1.3,1.2-2.1,1.7l-9.1-9.1l11.6-11.6C23.1,227.5,23,235.9,17.7,241.2z"/>
</svg>
